<svg width="28" height="28" viewBox="0 0 28 28" fill="none" xmlns="http://www.w3.org/2000/svg">
<rect width="28" height="28" rx="8" fill="#282828"/>
<path d="M14.7419 7.30262C14.5536 7.11652 14.29 7 14.0001 7C13.7103 7 13.4467 7.11652 13.2584 7.30262L8.30825 12.1949C7.89725 12.6011 7.89725 13.2549 8.30825 13.6611C8.71925 14.0673 9.38077 14.0673 9.79179 13.6611L12.9521 10.5378V18.9643C12.9521 19.5355 13.422 20 14 20C14.578 20 15.048 19.5355 15.048 18.9643V10.5378L18.2083 13.6611C18.4129 13.8634 18.6815 13.9637 18.95 13.9637C19.2185 13.9637 19.4871 13.865 19.6918 13.6611C20.1027 13.2549 20.1027 12.6011 19.6918 12.1949L14.7419 7.30262Z" fill="white"/>
</svg>
