<svg width="14" height="16" viewBox="0 0 14 16" fill="none" xmlns="http://www.w3.org/2000/svg">
<path d="M7.7694 6.4C8.24617 6.4 8.63266 6.75817 8.63266 7.2V9.6C8.63266 9.746 8.63266 9.86381 8.63266 10C8.63266 10.1362 8.63266 10.254 8.63266 10.4C8.63266 10.8418 8.24617 11.2 7.7694 11.2H5.1796C4.70283 11.2 4.31633 10.8418 4.31633 10.4C4.31633 9.95817 4.70283 9.6 5.1796 9.6H6.90613V7.2C6.90613 6.75817 7.29263 6.4 7.7694 6.4Z" fill="white"/>
<path fill-rule="evenodd" clip-rule="evenodd" d="M9.49593 0C9.9727 0 10.3592 0.358172 10.3592 0.8C10.3592 1.24183 9.9727 1.6 9.49593 1.6H7.7694V3.25078C8.96362 3.38881 10.0628 3.80881 10.9873 4.4375L12.4735 2.78828C12.7791 2.44937 13.3241 2.40369 13.69 2.68672C14.0559 2.96981 14.1049 3.47492 13.7996 3.81406L12.2434 5.53906C13.2234 6.64395 13.8123 8.05812 13.8123 9.6C13.8123 13.1346 10.7203 16 6.90613 16C3.09198 16 0 13.1346 0 9.6C0 6.33636 2.63623 3.64453 6.04286 3.25078V1.6H4.31633C3.83956 1.6 3.45307 1.24183 3.45307 0.8C3.45307 0.358172 3.83956 0 4.31633 0H9.49593ZM6.90613 4.8C4.04552 4.8 1.72653 6.94903 1.72653 9.6C1.72653 12.251 4.04552 14.4 6.90613 14.4C9.76674 14.4 12.0857 12.251 12.0857 9.6C12.0857 6.94903 9.76674 4.8 6.90613 4.8Z" fill="white"/>
</svg>
