<svg width="12" height="13" viewBox="0 0 12 13" fill="none" xmlns="http://www.w3.org/2000/svg">
<path d="M5.25811 12.6974C5.44641 12.8835 5.71003 13 5.99985 13C6.28968 13 6.5533 12.8835 6.7416 12.6974L11.6918 7.8051C12.1027 7.39891 12.1028 6.74512 11.6918 6.33891C11.2808 5.93272 10.6192 5.93272 10.2082 6.33891L7.04794 9.46224L7.04794 1.03571C7.04794 0.464453 6.57799 -4.74007e-07 5.99998 -5.24538e-07C5.42197 -5.7507e-07 4.95202 0.464453 4.95202 1.03571L4.95202 9.46224L1.79174 6.33891C1.58706 6.13663 1.31853 6.03629 1.05 6.03629C0.781467 6.03629 0.512937 6.13501 0.308249 6.33891C-0.102748 6.7451 -0.102748 7.3989 0.308249 7.8051L5.25811 12.6974Z" fill="white"/>
</svg>
