<svg width="24" height="24" viewBox="0 0 24 24" fill="none" xmlns="http://www.w3.org/2000/svg">
<path d="M23.6845 9.4453C24.0619 9.7753 24.107 10.3453 23.7859 10.7306C23.4639 11.1159 22.894 11.1741 22.5006 10.8628L12 2.12347L1.49936 10.8628C1.106 11.1741 0.536132 11.1159 0.214103 10.7306C-0.106966 10.3453 -0.0619023 9.7753 0.315494 9.4453L11.4076 0.214687L11.4085 0.213749C11.7512 -0.0712498 12.2488 -0.0712498 12.5915 0.213749L23.6845 9.4453Z" fill="#A5A5A5"/>
<path d="M21.2436 8.30816C20.7329 8.30816 20.3198 8.72067 20.3198 9.23067V21.2306C20.3198 21.4753 20.2222 21.7106 20.0485 21.8832C19.8758 22.0566 19.6401 22.1541 19.3951 22.1541H16.6218V16.6154C16.6218 14.9663 15.7412 13.4428 14.3113 12.6189C12.8806 11.7939 11.1194 11.7939 9.68867 12.6189C8.25885 13.443 7.37823 14.9664 7.37823 16.6154V22.1541H4.60496C4.09424 22.1541 3.68021 21.7406 3.68021 21.2306V9.23067C3.68021 8.72067 3.26711 8.30816 2.75639 8.30816C2.24567 8.30816 1.83164 8.72067 1.83164 9.23067V21.2306C1.83164 22.7606 3.07371 24 4.60491 24H19.3951C20.9263 24 22.1684 22.7606 22.1684 21.2306V9.23067C22.1684 8.98599 22.0707 8.75161 21.8971 8.57816C21.7243 8.40473 21.4887 8.30816 21.2436 8.30816ZM9.2267 16.6153C9.2267 15.0862 10.4688 13.8459 12 13.8459C13.5312 13.8459 14.7732 15.0862 14.7732 16.6153V22.154H9.2267V16.6153Z" fill="#A5A5A5"/>
</svg>
