<svg width="15" height="24" viewBox="0 0 15 24" fill="none" xmlns="http://www.w3.org/2000/svg">
<path d="M10.4553 5.0152C11.8506 5.0152 12.9856 3.89034 12.9856 2.5076C12.9856 1.12486 11.8506 0 10.4553 0C9.06005 0 7.925 1.12486 7.925 2.5076C7.925 3.89034 9.06005 5.0152 10.4553 5.0152ZM15 9.97719C15 10.5329 14.5469 10.982 13.9861 10.982H11.016C10.4552 10.982 10.0021 10.5329 10.0021 9.97719C10.0021 9.42144 10.4552 8.97239 11.016 8.97239H13.9861C14.5469 8.97239 15 9.42144 15 9.97719ZM12.9049 14.3032C13.0978 14.5389 13.1695 14.8501 13.1067 15.1435L12.0076 20.2253C11.9044 20.6966 11.4872 21.0212 11.0161 21.0212C10.9443 21.0212 10.8725 21.0123 10.8007 20.9989C10.2534 20.8833 9.90795 20.3498 10.0246 19.8074L10.8591 15.9392H6.6687L3.86472 23.3509C3.71218 23.7555 3.32635 24 2.91808 24C2.80144 24 2.68031 23.9778 2.56365 23.9378C2.03875 23.7421 1.77405 23.1641 1.97145 22.6439L7.56156 7.87406H3.55066L1.91761 11.1464C1.66637 11.6444 1.0607 11.8444 0.562708 11.5999C0.0602328 11.3554 -0.141647 10.7507 0.105082 10.2572L2.01627 6.42911C2.18675 6.08677 2.53669 5.86889 2.92251 5.86889H9.02399C9.35597 5.86889 9.66555 6.02895 9.85397 6.30015C10.0424 6.57136 10.0873 6.9137 9.97061 7.22494L7.4313 13.9341H12.1106C12.4157 13.9341 12.7073 14.0719 12.9002 14.3075L12.9049 14.3032Z" fill="white"/>
</svg>
